<svg width="145" height="123" xmlns="http://www.w3.org/2000/svg">
 <!-- Created with Method Draw - http://github.com/duopixel/Method-Draw/ -->
    <g>
        <ellipse stroke="#000" id="svg_8" cy="316" cx="230.5" stroke-width="1.5" fill="#fff"/>
        <path id="svg_16" d="m125.5,47" opacity="0.5" fill-opacity="null" stroke-opacity="null" stroke-width="1.5" stroke="#000" fill="none"/>
        <path id="svg_18" d="m145.5,51" opacity="0.5" fill-opacity="null" stroke-opacity="null" stroke-width="1.5" stroke="#000" fill="none"/>
        <path id="svg_29" d="m38.77855,63.98426c-0.76762,0.07315 -1.55243,0.12372 -2.35959,0.12372l0,0c-0.72199,0 -1.42333,-0.04003 -2.10749,-0.09937l0,0l-5.92388,7.70998l-1.45686,-0.41822c-1.70989,-0.48622 -3.37074,-1.09621 -4.96787,-1.82816l0,0l-1.38458,-0.63436l0.35625,-9.6845c-1.25897,-0.89234 -2.43357,-1.88571 -3.52135,-2.97487l0,0l-9.36602,2.03731l-0.85537,-1.27232c-1.00339,-1.4935 -1.85875,-3.05854 -2.61685,-4.64088l0,0l-0.65832,-1.38207l6.35935,-7.12786c-0.39759,-1.50926 -0.66089,-3.06731 -0.79686,-4.65488l0,0l-8.4272,-4.51197l0.15317,-1.52847c0.18074,-1.82819 0.53009,-3.57787 0.94745,-5.25962l0,0l0.37263,-1.49187l9.39959,-1.31751c0.67034,-1.43255 1.45948,-2.79015 2.34839,-4.06588l0,0l-3.58669,-8.94207l1.08256,-1.07355c1.27269,-1.2548 2.63494,-2.39279 4.05651,-3.43325l0,0l1.23144,-0.8992l8.11396,5.16025c1.36742,-0.63781 2.7976,-1.16239 4.27943,-1.56501l0,0l2.94131,-9.24184l1.51626,-0.11673c0.81666,-0.06098 1.69441,-0.13246 2.64872,-0.13246l0,0c0.95174,0 1.82688,0.07148 2.64357,0.13246l0,0l1.51622,0.11673l2.97314,9.33776c1.42505,0.40251 2.80622,0.91665 4.12973,1.5406l0,0l8.22756,-5.2336l1.23572,0.8993c1.4216,1.03872 2.78637,2.18018 4.05657,3.42977l0,0l1.08682,1.07355l-3.69684,9.20702c0.80547,1.18504 1.53174,2.43987 2.1522,3.75913l0,0l9.69305,1.35933l0.3769,1.49177c0.42339,1.68008 0.77106,3.42976 0.94742,5.26144l0,0l0.15321,1.52837l-8.72153,4.66879c-0.13078,1.44831 -0.36313,2.8739 -0.70993,4.26283l0,0l6.57103,7.35103l-0.66087,1.38717c-0.75554,1.58769 -1.60664,3.1579 -2.61432,4.64621l0,0l-0.85536,1.26869l-9.59836,-2.0825c-1.01716,1.02992 -2.11862,1.97801 -3.29587,2.83371l0,0l0.36572,9.87446l-1.38803,0.63612c-1.59889,0.72847 -3.25713,1.34019 -4.96696,1.82642l0,0l-1.46209,0.41825l-5.93678,-7.72916l0,0l0,0zm7.61742,2.47303c0.51205,-0.17259 1.01545,-0.35911 1.51365,-0.55778l0,0l-0.34248,-9.32546l1.07999,-0.70239c1.61778,-1.06301 3.091,-2.33878 4.39903,-3.78694l0,0l0.87085,-0.96545l9.08209,1.96924c0.27279,-0.46186 0.53695,-0.93412 0.79165,-1.41681l0,0l-6.21216,-6.95536l0.38552,-1.24263c0.54813,-1.7898 0.85966,-3.70862 0.95172,-5.71093l0,0l0.0568,-1.30367l8.25163,-4.41609c-0.08604,-0.53506 -0.18496,-1.06658 -0.29772,-1.59993l0,0l-9.18102,-1.28605l-0.4939,-1.20256c-0.73837,-1.79859 -1.71508,-3.48205 -2.8811,-5.03483l0,0l-0.77105,-1.03521l3.49204,-8.69807c-0.40446,-0.35909 -0.81924,-0.70758 -1.24519,-1.04567l0,0l-7.79468,4.95468l-1.14797,-0.61354c-1.70038,-0.90623 -3.53937,-1.59462 -5.47902,-2.04073l0,0l-1.25464,-0.29101l-2.81479,-8.8393c-0.27368,-0.01389 -0.53957,-0.02093 -0.79859,-0.02093l0,0c-0.26421,0 -0.53009,0.00704 -0.80548,0.02093l0,0l-2.79497,8.78181l-1.27275,0.27536c-1.97322,0.42865 -3.85518,1.12754 -5.60808,2.04596l0,0l-1.1454,0.60296l-7.6682,-4.8762c-0.42337,0.33809 -0.83903,0.68658 -1.24001,1.04567l0,0l3.39906,8.4698l-0.79853,1.03687c-1.2452,1.61902 -2.28044,3.3932 -3.05665,5.29802l0,0l-0.49135,1.20774l-8.88588,1.2443c-0.11272,0.53335 -0.21252,1.06487 -0.29599,1.59993l0,0l7.96596,4.26451l0.04903,1.31397c0.08345,2.12103 0.43371,4.15657 1.03606,6.05966l0,0l0.39417,1.25124l-6.01603,6.7393c0.25302,0.48445 0.51633,0.95671 0.79173,1.41854l0,0l8.83419,-1.92574l0.87949,0.96548c1.35533,1.50234 2.90342,2.80762 4.60902,3.89167l0,0l1.10064,0.69527l-0.33648,9.1826c0.49911,0.19868 1.00424,0.3852 1.51625,0.55778l0,0l5.59176,-7.28127l1.27701,0.15852c0.9638,0.12376 1.90177,0.20393 2.83547,0.20393l0,0c1.00423,0 2.01705,-0.08884 3.0523,-0.237l0,0l1.28824,-0.18294l5.63476,7.33875l0,0l0,0zm2.54889,-18.90896l1.23226,1.91695l-7.8119,5.14645l-2.77261,-4.32039l0,0c-1.00858,0.24919 -2.06875,0.3957 -3.17194,0.3957l0,0c-7.6338,0 -13.8193,-6.26525 -13.8193,-13.98743l0,0c0,-7.72909 6.1855,-13.99262 13.8193,-13.99262l0,0c7.62519,0 13.81236,6.26353 13.81236,13.99262l0,0c0,3.17351 -1.05325,6.11355 -2.81905,8.4611l0,0l1.53088,2.38762m-5.2553,0.73711l0.24353,-0.15679l-2.22705,-3.4698l1.29078,-1.30712c1.68755,-1.71312 2.72275,-4.05015 2.72275,-6.65213l0,0c-0.00948,-5.20209 -4.16928,-9.41443 -9.30061,-9.42483l0,0c-5.14342,0.0104 -9.29892,4.21748 -9.30753,9.42483l0,0c0.00861,5.19691 4.16841,9.40914 9.30753,9.41964l0,0c1.14791,0 2.25287,-0.23879 3.3225,-0.65355l0,0l1.70557,-0.66225l2.24253,3.482l0,0z" stroke-width="1.5" fill="#0055a5"/>
        <path id="svg_30" d="m100.68268,68.05401c-0.5622,0.05358 -1.13699,0.09062 -1.72815,0.09062l0,0c-0.52879,0 -1.04245,-0.02932 -1.54351,-0.07279l0,0l-4.33862,5.64675l-1.067,-0.3063c-1.25231,-0.3561 -2.46871,-0.80286 -3.63845,-1.33893l0,0l-1.01405,-0.4646l0.26092,-7.09288c-0.92207,-0.65354 -1.78233,-1.38108 -2.57902,-2.17878l0,0l-6.85962,1.49211l-0.62647,-0.93185c-0.73488,-1.09382 -1.36134,-2.24006 -1.91657,-3.39895l0,0l-0.48216,-1.01223l4.65755,-5.2204c-0.29119,-1.10537 -0.48403,-2.24648 -0.58362,-3.4092l0,0l-6.17203,-3.30454l0.11217,-1.11944c0.13237,-1.33896 0.38823,-2.62041 0.69391,-3.85212l0,0l0.27292,-1.09264l6.8842,-0.96494c0.49095,-1.04919 1.06892,-2.04348 1.71995,-2.97783l0,0l-2.62687,-6.54912l0.79287,-0.78626c0.93211,-0.919 1.92982,-1.75247 2.97096,-2.51449l0,0l0.90189,-0.65857l5.94263,3.77934c1.00149,-0.46713 2.04895,-0.85133 3.13423,-1.1462l0,0l2.1542,-6.76867l1.1105,-0.08549c0.59812,-0.04466 1.24098,-0.09701 1.93991,-0.09701l0,0c0.69705,0 1.338,0.05235 1.93614,0.09701l0,0l1.11047,0.08549l2.17751,6.83892c1.0437,0.2948 2.05526,0.67135 3.02459,1.12833l0,0l6.02582,-3.83306l0.90503,0.65864c1.04117,0.76075 2.04072,1.59676 2.97101,2.51194l0,0l0.79597,0.78626l-2.70754,6.74317c0.58993,0.86792 1.12184,1.78695 1.57627,2.75317l0,0l7.09913,0.99557l0.27604,1.09256c0.31009,1.23048 0.56472,2.51194 0.69389,3.85345l0,0l0.11222,1.11937l-6.38761,3.4194c-0.09578,1.06073 -0.26595,2.10483 -0.51995,3.12207l0,0l4.81259,5.38385l-0.48401,1.01596c-0.55336,1.16282 -1.17669,2.31283 -1.91471,3.40286l0,0l-0.62647,0.92917l-7.02978,-1.52521c-0.74496,0.75431 -1.55167,1.44868 -2.41387,2.07539l0,0l0.26784,7.23201l-1.01659,0.46589c-1.17101,0.53353 -2.3855,0.98154 -3.63777,1.33766l0,0l-1.07082,0.30632l-4.34807,-5.66079l0,0l0.00001,0zm5.57896,1.81123c0.37502,-0.1264 0.74371,-0.263 1.10859,-0.40851l0,0l-0.25083,-6.82991l0.79098,-0.51443c1.18485,-0.77854 2.26383,-1.7129 3.22182,-2.77353l0,0l0.63781,-0.70709l6.65166,1.44226c0.1998,-0.33826 0.39326,-0.68414 0.57981,-1.03766l0,0l-4.54976,-5.09407l0.28235,-0.9101c0.40145,-1.31085 0.62961,-2.71618 0.69703,-4.18265l0,0l0.0416,-0.9548l6.04345,-3.23432c-0.06302,-0.39187 -0.13546,-0.78116 -0.21805,-1.17178l0,0l-6.72413,-0.9419l-0.36173,-0.88075c-0.54078,-1.31728 -1.25612,-2.55023 -2.1101,-3.68748l0,0l-0.56471,-0.75818l2.55755,-6.37042c-0.29622,-0.263 -0.60001,-0.51823 -0.91197,-0.76584l0,0l-5.70878,3.62877l-0.84077,-0.44935c-1.24534,-0.66371 -2.59221,-1.16789 -4.0128,-1.49461l0,0l-0.91889,-0.21314l-2.06153,-6.47385c-0.20044,-0.01018 -0.39518,-0.01534 -0.58488,-0.01534l0,0c-0.19351,0 -0.38823,0.00516 -0.58993,0.01534l0,0l-2.04702,6.43175l-0.93215,0.20167c-1.44518,0.31393 -2.82351,0.8258 -4.10733,1.49845l0,0l-0.83888,0.4416l-5.61615,-3.5713c-0.31007,0.24762 -0.6145,0.50285 -0.90817,0.76584l0,0l2.48945,6.20323l-0.58484,0.7594c-0.91198,1.18576 -1.67018,2.48516 -2.23867,3.88024l0,0l-0.35985,0.88454l-6.50797,0.91132c-0.08256,0.39062 -0.15565,0.7799 -0.21678,1.17177l0,0l5.83422,3.1233l0.03591,0.96235c0.06113,1.55343 0.31765,3.04425 0.75881,4.43806l0,0l0.28868,0.9164l-4.40611,4.93583c0.18532,0.35481 0.37816,0.70069 0.57986,1.03893l0,0l6.47011,-1.4104l0.64413,0.70711c0.99264,1.10031 2.12646,2.05628 3.37562,2.85024l0,0l0.8061,0.50921l-0.24644,6.72528c0.36555,0.1455 0.73549,0.28211 1.11049,0.40851l0,0l4.09537,-5.33276l0.93527,0.1161c0.70588,0.09064 1.39285,0.14936 2.07668,0.14936l0,0c0.73549,0 1.47728,-0.06507 2.23549,-0.17358l0,0l0.9435,-0.13398l4.12687,5.37486l0,0l0,0zm1.8668,-13.84882l0.90249,1.40397l-5.72139,3.76923l-2.03064,-3.16424l0,0c-0.73868,0.18251 -1.51514,0.28981 -2.32311,0.28981l0,0c-5.59095,0 -10.12118,-4.58863 -10.12118,-10.24431l0,0c0,-5.66075 4.53023,-10.24812 10.12118,-10.24812l0,0c5.58465,0 10.11609,4.58737 10.11609,10.24812l0,0c0,2.32426 -0.77139,4.47753 -2.06465,6.19686l0,0l1.12121,1.74868m-3.84896,0.53986l0.17836,-0.11483l-1.63108,-2.54126l0.94536,-0.95733c1.23595,-1.25468 1.99413,-2.9663 1.99413,-4.87198l0,0c-0.00694,-3.80998 -3.05356,-6.89508 -6.81171,-6.90269l0,0c-3.76701,0.00762 -6.81048,3.08886 -6.81678,6.90269l0,0c0.00631,3.80619 3.05292,6.8912 6.81678,6.89889l0,0c0.84072,0 1.64999,-0.17489 2.43338,-0.47866l0,0l1.24915,-0.48503l1.64242,2.55019l0,0z" stroke-width="1.5" fill="#bda0b2"/>
        <path transform="rotate(-8.853212356567383 66.97677612304673,92.57968139648436) " id="svg_31" d="m68.75863,113.68796c-0.61428,0.05561 -1.24232,0.09406 -1.88824,0.09406l0,0c-0.57777,0 -1.13901,-0.03043 -1.6865,-0.07555l0,0l-4.74054,5.86136l-1.16584,-0.31794c-1.36832,-0.36964 -2.69741,-0.83337 -3.9755,-1.38982l0,0l-1.108,-0.48226l0.28509,-7.36245c-1.00748,-0.67838 -1.94744,-1.43357 -2.81793,-2.26159l0,0l-7.49508,1.54882l-0.6845,-0.96726c-0.80295,-1.1354 -1.48745,-2.32519 -2.09411,-3.52813l0,0l-0.52682,-1.05069l5.08902,-5.41881c-0.31817,-1.14739 -0.52888,-2.33186 -0.63768,-3.53878l0,0l-6.7438,-3.43013l0.12257,-1.16199c0.14464,-1.38984 0.4242,-2.72 0.75819,-3.99852l0,0l0.2982,-1.13416l7.52194,-1.00161c0.53643,-1.08907 1.16794,-2.12115 1.87928,-3.09101l0,0l-2.87022,-6.79803l0.86631,-0.81614c1.01846,-0.95393 2.10859,-1.81907 3.24619,-2.61006l0,0l0.98545,-0.6836l6.49313,3.92298c1.09427,-0.48489 2.23876,-0.88369 3.42458,-1.18976l0,0l2.35376,-7.02592l1.21337,-0.08874c0.65353,-0.04636 1.35594,-0.1007 2.11962,-0.1007l0,0c0.76163,0 1.46194,0.05434 2.1155,0.1007l0,0l1.21334,0.08874l2.37923,7.09884c1.14038,0.306 2.24565,0.69687 3.30478,1.17121l0,0l6.58404,-3.97874l0.98888,0.68367c1.13763,0.78966 2.22977,1.65744 3.24623,2.60741l0,0l0.86972,0.81614l-2.95837,6.99945c0.64457,0.9009 1.22576,1.85486 1.72228,2.8578l0,0l7.75678,1.0334l0.30161,1.13409c0.33881,1.27725 0.61704,2.60741 0.75817,3.9999l0,0l0.12261,1.16191l-6.97933,3.54935c-0.10465,1.10105 -0.29059,2.18483 -0.56812,3.24073l0,0l5.25841,5.58847l-0.52885,1.05456c-0.60462,1.20701 -1.2857,2.40073 -2.09209,3.53219l0,0l-0.6845,0.96449l-7.68101,-1.58318c-0.81397,0.78298 -1.69541,1.50374 -2.63749,2.15427l0,0l0.29266,7.50686l-1.11076,0.4836c-1.2795,0.55381 -2.60649,1.01885 -3.97477,1.3885l0,0l-1.17002,0.31797l-4.75086,-5.87594l0,0l0,0zm6.09578,1.88007c0.40976,-0.13121 0.8126,-0.273 1.21129,-0.42404l0,0l-0.27407,-7.08949l0.86425,-0.53397c1.29462,-0.80813 2.47355,-1.77801 3.52029,-2.87895l0,0l0.69689,-0.73396l7.26787,1.49707c0.2183,-0.35112 0.42969,-0.71015 0.63351,-1.0771l0,0l-4.97123,-5.28767l0.30851,-0.94469c0.43864,-1.36066 0.68794,-2.81941 0.76161,-4.34162l0,0l0.04545,-0.99109l6.6033,-3.35724c-0.06885,-0.40677 -0.14801,-0.81085 -0.23825,-1.21631l0,0l-7.34704,-0.97769l-0.39524,-0.91422c-0.59087,-1.36734 -1.37248,-2.64716 -2.30558,-3.82763l0,0l-0.61702,-0.787l2.79448,-6.61254c-0.32367,-0.27299 -0.65559,-0.53792 -0.99646,-0.79495l0,0l-6.23763,3.76669l-0.91866,-0.46643c-1.36071,-0.68894 -2.83235,-1.21228 -4.38454,-1.55142l0,0l-1.00401,-0.22124l-2.25251,-6.7199c-0.21901,-0.01056 -0.43179,-0.01591 -0.63906,-0.01591l0,0c-0.21143,0 -0.4242,0.00535 -0.64458,0.01591l0,0l-2.23665,6.67619l-1.01851,0.20933c-1.57906,0.32587 -3.08508,0.85719 -4.48782,1.5554l0,0l-0.9166,0.45839l-6.13642,-3.70703c-0.3388,0.25703 -0.67143,0.52196 -0.99231,0.79495l0,0l2.72007,6.43899l-0.63902,0.78826c-0.99646,1.23083 -1.8249,2.57961 -2.44606,4.02771l0,0l-0.3932,0.91816l-7.11085,0.94595c-0.0902,0.40547 -0.17007,0.80955 -0.23686,1.21631l0,0l6.37469,3.24201l0.03924,0.99892c0.06678,1.61247 0.34707,3.15995 0.8291,4.60674l0,0l0.31543,0.95123l-4.81428,5.12342c0.20248,0.36829 0.41319,0.72732 0.63358,1.07842l0,0l7.06949,-1.464l0.7038,0.73399c1.08459,1.14213 2.32344,2.13444 3.68833,2.95857l0,0l0.88078,0.52856l-0.26927,6.98089c0.39941,0.15104 0.80363,0.29284 1.21337,0.42404l0,0l4.47476,-5.53544l1.02192,0.12051c0.77127,0.09409 1.52188,0.15503 2.26906,0.15503l0,0c0.80363,0 1.61413,-0.06754 2.44258,-0.18017l0,0l1.0309,-0.13907l4.50917,5.57914l0,0l0,0zm2.03973,-14.37515l0.9861,1.45732l-6.25141,3.91249l-2.21876,-3.28449l0,0c-0.80711,0.18944 -1.6555,0.30082 -2.53832,0.30082l0,0c-6.10889,0 -11.05879,-4.76303 -11.05879,-10.63366l0,0c0,-5.87589 4.9499,-10.63761 11.05879,-10.63761l0,0c6.102,0 11.05323,4.76172 11.05323,10.63761l0,0c0,2.4126 -0.84285,4.64771 -2.25592,6.43238l0,0l1.22507,1.81514m-4.20551,0.56038l0.19488,-0.11919l-1.78218,-2.63785l1.03294,-0.99371c1.35044,-1.30236 2.17886,-3.07904 2.17886,-5.05715l0,0c-0.00758,-3.95478 -3.33643,-7.15713 -7.44274,-7.16503l0,0c-4.11598,0.00791 -7.44138,3.20625 -7.44827,7.16503l0,0c0.00689,3.95085 3.33573,7.15311 7.44827,7.16109l0,0c0.91861,0 1.80284,-0.18153 2.6588,-0.49685l0,0l1.36487,-0.50346l1.79457,2.64712l0,0z" stroke-width="1.5" fill="#45aee7"/>
    </g>
</svg>